<svg width="21" height="20" viewBox="0 0 21 20" fill="none" xmlns="http://www.w3.org/2000/svg">
<path d="M13.4505 2.4667L5.9249 4.9667C0.86618 6.65837 0.86618 9.4167 5.9249 11.1L8.1584 11.8417L8.90013 14.075C10.5836 19.1334 13.3505 19.1334 15.0339 14.075L17.5424 6.55837C18.6592 3.18337 16.8257 1.3417 13.4505 2.4667ZM13.7172 6.95004L10.5503 10.1334C10.4252 10.2584 10.2669 10.3167 10.1086 10.3167C9.95021 10.3167 9.79186 10.2584 9.66685 10.1334C9.42517 9.8917 9.42517 9.4917 9.66685 9.25004L12.8338 6.0667C13.0754 5.82504 13.4755 5.82504 13.7172 6.0667C13.9588 6.30837 13.9588 6.70837 13.7172 6.95004Z" fill="#586070" fill-opacity="0.6"/>
</svg>
